<?xml version="1.0" encoding="UTF-8"?>
<svg id="Layer_2" data-name="Layer 2" xmlns="http://www.w3.org/2000/svg" viewBox="0 0 36.33 41.08">
  <defs>
    <style>
      .cls-1 {
        fill: #d35c2c;
      }

      .cls-2 {
        fill: #f58222;
      }
    </style>
  </defs>
  <g id="Layer_1-2" data-name="Layer 1">
    <g>
      <path class="cls-2" d="M18.17,5.17h-.03v2.02l.21.05,11.74,6.82v7.93s-2.7,1.58-2.7,1.58v-7.94l-9.24-5.26h-.01v2.02h.02s7.48,4.2,7.48,4.2v8l-7.47,4.16-.03-.02v2.02h.03s13.69-7.73,13.69-7.73v-9.97l-13.69-7.87ZM36.31,10.45L18.24,0h-.1v2.01l.03-.02,16.45,9.5v13.04s-16.4,9.36-16.4,9.36l-.08-.03v2.03h.03s16.47-9.34,16.47-9.34v3.08l-16.47,9.46h-.03s0,1.99,0,1.99h.03s18.17-10.42,18.17-10.42l-.02-20.19ZM31.85,23.01v-9.97l-13.69-7.87h-.03v2.02l.21.05,11.74,6.82v7.93s-2.7,1.58-2.7,1.58v-7.94l-9.24-5.26h-.01v2.02h.02s7.48,4.2,7.48,4.2v8l-7.47,4.16-.03-.02v2.02h.03s13.69-7.73,13.69-7.73Z"/>
      <polygon class="cls-1" points="6.24 14.06 6.22 27.05 17.49 33.54 18.14 33.85 18.14 35.89 4.49 28.03 4.48 13.04 18.14 5.18 18.14 7.19 18.12 7.18 6.24 14.06"/>
      <polygon class="cls-1" points="17.88 12.49 10.69 16.64 10.71 24.44 18.14 28.72 18.14 30.74 8.98 25.44 8.93 25.23 8.96 15.65 18.04 10.38 18.14 10.36 18.14 12.38 17.88 12.49"/>
      <path class="cls-1" d="M17.79,22.03c.12.02.24.03.35.04v3.28l-6.33-4.8,6.33-4.82v2.35c-.12,0-.24.01-.37.03-2.03.3-2.14,3.54.02,3.91Z"/>
      <polygon class="cls-1" points="18.14 2.01 1.75 11.44 1.79 29.65 18.14 39.07 18.14 41.07 0 30.65 .01 10.45 18.1 .01 18.14 .01 18.14 2.01"/>
      <path class="cls-2" d="M18.17,15.71l-.03.03v2.35c2.74-.05,2.62,4.09,0,3.99v3.28l.08.05,6.24-4.9-6.28-4.8Z"/>
    </g>
  </g>
</svg>